<svg id="Layer_1" data-name="Layer 1" xmlns="http://www.w3.org/2000/svg" viewBox="0 0 100 24"><defs><style>.cls-1{fill:#e92e29;fill-rule:evenodd}</style></defs><path class="cls-1" d="M61 13.47a6.59 6.59 0 016.64-6.65 6.66 6.66 0 110 13.31A6.58 6.58 0 0161 13.47zm6.51 5a1.48 1.48 0 001.81 1 1.46 1.46 0 001-1.79L67.8 8.42a1.46 1.46 0 00-1.79-1A1.48 1.48 0 0065 9.18l2.5 9.28zM52.55 8.54a2 2 0 00-2.2-1.81 3.51 3.51 0 00-1.66.43l-3.48 1.92h2.71v10.64h4.63V9.65a1.14 1.14 0 112.28 0v10.07h4.53V8.65a2.07 2.07 0 00-2.2-1.92 3.57 3.57 0 00-1.64.45l-3 1.36z"/><path class="cls-1" d="M81.11 8.54a2 2 0 00-2.22-1.81 3.64 3.64 0 00-1.66.43l-3.48 1.92h2.73v10.64h4.63V9.65a1.16 1.16 0 012.31 0v10.07h4.54V8.65a2.08 2.08 0 00-2.22-1.92 3.68 3.68 0 00-1.64.45l-3 1.36zM24.58 11.81l6-3.42a10 10 0 00-8.72-4.52c-5.38 0-9.75 3.63-9.75 8.11s4.37 8.08 9.75 8.08A10.32 10.32 0 0030 16.35l-.06-.68a6.66 6.66 0 01-5.53 2.88 6.53 6.53 0 01-6.63-6.46 6.55 6.55 0 016.63-6.47 4.31 4.31 0 013.41 1.15l-3.24 5zM35.63 15.63A2.38 2.38 0 1138 18a2.38 2.38 0 01-2.37-2.36zM46 19.72L43.31 9.08A3.24 3.24 0 0040 6.71a4.82 4.82 0 00-2 .53l-5 1.84h6l1.07 4a6.58 6.58 0 00-3.86-1.54c-2.88-.27-5.25 1.84-5.25 4.1a4.5 4.5 0 005.25 4.09c2.79-.46 4.31-1.66 4.71-3.39l.9 3.35z"/><path fill="none" stroke="#000" stroke-miterlimit="10" opacity=".9" d="M0 0h100v24H0z"/></svg>